<?xml version="1.0"?>
<svg xmlns="http://www.w3.org/2000/svg" xmlns:xlink="http://www.w3.org/1999/xlink" xmlns:svgjs="http://svgjs.com/svgjs" version="1.1" width="512" height="512" x="0" y="0" viewBox="0 0 512 512" style="enable-background:new 0 0 512 512" xml:space="preserve" class=""><g><path xmlns="http://www.w3.org/2000/svg" d="m466 121h-210-210c-24.814 0-46 20.186-46 45v240c0 24.814 21.186 45 46 45h164.18l33.105 53.954c2.739 4.38 7.544 7.046 12.715 7.046s9.976-2.666 12.715-7.046l33.105-53.954h164.18c24.814 0 46-20.186 46-45v-240c0-24.814-21.186-45-46-45z" fill="#ff8056" data-original="#ff7c48" style="" class=""/><path xmlns="http://www.w3.org/2000/svg" d="m301.82 451h164.18c24.814 0 46-20.186 46-45v-240c0-24.814-21.186-45-46-45h-210v391c5.171 0 9.976-2.666 12.715-7.046z" fill="#f36333" data-original="#ff415b" style="" class=""/><path xmlns="http://www.w3.org/2000/svg" d="m173.178 374.989-37.178-19.292-37.178 19.292c-5.054 2.607-11.177 2.153-15.732-1.187-4.6-3.34-6.914-8.979-5.977-14.59l6.87-41.323-29.839-29.37c-4.043-3.999-5.493-9.932-3.735-15.322 1.758-5.405 6.416-9.36 12.026-10.21l41.426-6.226 18.721-37.471c5.068-10.166 21.768-10.166 26.836 0l18.721 37.471 41.426 6.226c5.61.85 10.269 4.805 12.026 10.21 1.758 5.391.308 11.323-3.735 15.322l-29.839 29.37 6.87 41.323c.938 5.61-1.377 11.25-5.977 14.59-4.492 3.282-10.577 3.852-15.732 1.187z" fill="#ffe375" data-original="#ffe375" style=""/><path xmlns="http://www.w3.org/2000/svg" d="m413.178 374.989-37.178-19.292-37.178 19.292c-5.054 2.607-11.177 2.153-15.732-1.187-4.6-3.34-6.914-8.979-5.977-14.59l6.87-41.323-29.839-29.37c-4.043-3.999-5.493-9.932-3.735-15.322 1.758-5.405 6.416-9.36 12.026-10.21l41.426-6.226 18.721-37.471c5.068-10.166 21.768-10.166 26.836 0l18.721 37.471 41.426 6.226c5.61.85 10.269 4.805 12.026 10.21 1.758 5.391.308 11.323-3.735 15.322l-29.839 29.37 6.87 41.323c.938 5.61-1.377 11.25-5.977 14.59-4.492 3.282-10.577 3.852-15.732 1.187z" fill="#ffb725" data-original="#ffb725" style="" class=""/><path xmlns="http://www.w3.org/2000/svg" d="m373.48 82.812c-1.758-5.391-6.416-9.346-12.041-10.195l-63.369-9.521-28.652-55.47c-2.534-5.084-7.976-7.626-13.418-7.626s-10.884 2.542-13.418 7.625l-28.652 55.47-63.369 9.521c-5.625.85-10.283 4.805-12.041 10.195-1.758 5.405-.308 11.338 3.735 15.322l45.659 44.971-10.518 63.237c-.938 5.61 1.377 11.25 5.977 14.59 4.585 3.354 10.679 3.779 15.732 1.187l56.895-29.516 56.895 29.517c5.156 2.664 11.241 2.095 15.732-1.187 4.6-3.34 6.914-8.979 5.977-14.59l-10.518-63.237 45.659-44.971c4.043-3.985 5.493-9.917 3.735-15.322z" fill="#ffe375" data-original="#ffe375" style=""/><path xmlns="http://www.w3.org/2000/svg" d="m328.627 220.932c4.6-3.34 6.914-8.979 5.977-14.59l-10.518-63.237 45.659-44.971c4.043-3.984 5.493-9.917 3.735-15.322-1.758-5.391-6.416-9.346-12.041-10.195l-63.369-9.521-28.652-55.47c-2.534-5.084-7.976-7.626-13.418-7.626v192.602l56.895 29.517c5.156 2.663 11.24 2.094 15.732-1.187z" fill="#ffb725" data-original="#ffb725" style="" class=""/></g></svg>
